<?xml version="1.0" standalone="no"?>
<!DOCTYPE svg PUBLIC "-//W3C//DTD SVG 20010904//EN"
 "http://www.w3.org/TR/2001/REC-SVG-20010904/DTD/svg10.dtd">
<svg version="1.0" xmlns="http://www.w3.org/2000/svg"
 width="360.000000pt" height="360.000000pt" viewBox="0 0 360.000000 360.000000"
 preserveAspectRatio="xMidYMid meet">
<metadata>
Created by potrace 1.11, written by Peter Selinger 2001-2013
</metadata>
<g transform="translate(0.000000,360.000000) scale(0.100000,-0.100000)"
fill="#000000" stroke="none">
<path d="M2405 3443 c-58 -124 -54 -113 -115 -273 -28 -74 -63 -155 -77 -179
-40 -68 -152 -198 -298 -344 -67 -67 -217 -187 -235 -187 -5 0 -11 14 -15 30
-4 17 -10 30 -15 30 -5 0 -21 -22 -36 -50 -29 -53 -44 -63 -44 -30 0 11 -4 20
-9 20 -9 0 -27 -66 -36 -135 -3 -22 -8 -51 -10 -65 -3 -14 -7 -47 -10 -75 -3
-27 -8 -66 -10 -85 -3 -19 -7 -55 -10 -80 -18 -151 -38 -214 -98 -305 -62 -94
-97 -127 -97 -91 0 11 -8 12 -37 5 -60 -14 -65 -12 -52 12 10 19 9 21 -18 15
-64 -14 -72 -14 -77 0 -3 8 -12 11 -22 7 -9 -3 -19 -1 -23 5 -10 17 -177 -30
-207 -59 -13 -13 -45 -58 -69 -100 -39 -68 -44 -83 -43 -135 0 -33 -3 -84 -7
-115 -7 -56 -7 -56 33 -97 48 -49 57 -51 60 -16 3 35 37 81 74 100 28 15 30
14 35 -6 4 -15 9 -18 18 -10 19 16 35 -39 35 -117 0 -77 17 -153 37 -160 7 -3
32 -36 54 -74 53 -88 66 -97 60 -39 -1 8 21 -10 48 -40 55 -60 61 -78 32 -104
-11 -10 -22 -29 -25 -42 -4 -16 -19 -31 -41 -40 -35 -14 -47 -33 -22 -35 6 0
-6 -9 -28 -19 -32 -15 -36 -20 -22 -25 22 -9 22 -28 -2 -49 -28 -25 -74 -23
-135 8 -59 30 -112 29 -139 -2 -18 -22 -34 -72 -30 -94 4 -14 7 -15 31 -2 24
12 28 12 33 -4 4 -9 5 -20 2 -24 -2 -4 1 -16 6 -27 10 -17 14 -15 56 26 37 38
47 43 60 33 25 -21 18 -49 -16 -63 -30 -12 -31 -14 -15 -30 23 -23 78 -22 99
1 10 10 17 33 17 50 0 25 6 35 30 47 38 20 50 19 50 -4 0 -22 22 -33 47 -24
10 3 -9 -19 -42 -49 -59 -55 -61 -56 -107 -51 -61 7 -133 -13 -158 -44 -18
-23 -19 -38 -11 -117 1 -6 12 6 26 25 31 41 64 68 85 69 8 0 2 -9 -14 -19 -48
-32 -52 -49 -26 -103 7 -16 19 -28 26 -28 16 0 47 57 39 70 -9 14 40 42 77 44
25 1 35 -5 44 -23 11 -21 10 -27 -4 -37 -16 -12 -16 -13 0 -19 28 -11 72 9 82
37 7 21 4 32 -19 62 -32 42 -25 60 29 70 19 4 39 13 46 21 16 20 30 19 30 -1
0 -13 3 -14 14 -5 11 10 16 8 24 -5 9 -16 17 -10 63 40 42 46 54 55 59 41 6
-17 6 -17 64 60 9 12 15 15 16 7 0 -19 19 -5 41 31 10 18 25 32 33 32 7 0 48
39 89 86 l76 87 133 -55 c207 -85 257 -103 262 -94 3 5 -17 28 -45 52 -28 24
-47 45 -43 46 5 2 53 -12 106 -31 53 -18 100 -31 103 -28 3 3 -5 16 -17 29
-12 13 -19 23 -16 23 3 0 48 -13 101 -29 66 -21 111 -29 147 -27 83 5 86 23
12 70 -23 14 -42 28 -42 31 0 2 35 -12 78 -31 48 -23 90 -36 112 -34 66 3 89
6 95 11 7 8 -82 99 -97 99 -6 0 -9 2 -6 5 3 3 36 -6 73 -20 49 -19 79 -24 104
-20 69 12 71 21 14 73 -61 55 -101 77 -248 134 l-110 43 124 5 c87 3 126 9
129 17 3 12 -28 29 -68 38 -8 2 -70 20 -138 41 -117 36 -122 38 -106 56 10 10
23 18 31 18 26 0 12 25 -14 26 -59 1 -208 15 -212 20 -2 2 3 4 12 4 9 0 17 5
17 11 0 11 -79 8 -150 -6 -39 -8 -60 3 -60 31 0 43 17 61 156 164 74 55 137
107 140 115 11 27 -5 33 -53 19 -57 -17 -65 -11 -27 18 92 69 204 216 173 226
-5 2 -28 -3 -49 -12 -22 -9 -40 -14 -40 -11 0 3 32 35 70 72 39 36 91 93 117
127 46 61 125 215 137 269 8 32 8 32 -61 -15 -23 -15 -44 -28 -47 -28 -3 0 19
38 50 84 58 90 84 143 91 189 4 26 -10 37 -22 17 -3 -5 -10 -10 -15 -10 -5 0
5 37 21 83 16 45 29 92 29 104 0 26 -16 38 -27 21 -4 -7 -20 -24 -35 -37 -25
-22 -22 -13 25 80 45 89 92 225 81 238 -6 7 -48 -26 -103 -80 -30 -29 -52 -49
-50 -44 2 6 30 62 62 125 32 63 60 133 62 155 18 161 13 178 -36 111 -19 -25
-56 -84 -83 -131 -27 -47 -51 -84 -53 -82 -1 2 16 57 38 123 34 97 42 133 42
194 0 88 -8 152 -24 181 -11 21 -12 20 -33 -17 -12 -22 -41 -88 -65 -149 -41
-102 -88 -205 -94 -205 -2 0 10 50 25 111 26 103 33 187 29 342 -2 48 -20 29
-66 -70z"/>
<path d="M2052 3357 c-16 -130 -18 -141 -43 -222 -11 -37 -24 -64 -29 -59 -23
24 -100 234 -106 287 -1 9 -2 22 -3 27 -3 27 -21 4 -30 -39 -10 -48 -8 -312 3
-329 3 -5 8 -58 12 -118 3 -60 8 -120 9 -134 2 -14 3 -42 4 -62 1 -24 6 -38
14 -37 19 1 300 325 321 371 20 46 22 110 6 214 -20 125 -31 132 -50 31 -14
-76 -29 -107 -31 -62 -1 55 -44 221 -59 230 -4 2 -12 -42 -18 -98z"/>
</g>
</svg>
